<?xml version="1.0" encoding="UTF-8" standalone="no"?>
<svg
   xmlns:osb="http://www.openswatchbook.org/uri/2009/osb"
   xmlns:dc="http://purl.org/dc/elements/1.1/"
   xmlns:cc="http://creativecommons.org/ns#"
   xmlns:rdf="http://www.w3.org/1999/02/22-rdf-syntax-ns#"
   xmlns:svg="http://www.w3.org/2000/svg"
   xmlns="http://www.w3.org/2000/svg"
   viewBox="0 0 14 14"
   height="14"
   width="14"
   id="svg109"
   version="1.1">
  <metadata
     id="metadata115">
    <rdf:RDF>
      <cc:Work
         rdf:about="">
        <dc:format>image/svg+xml</dc:format>
        <dc:type
           rdf:resource="http://purl.org/dc/dcmitype/StillImage" />
        <dc:title></dc:title>
      </cc:Work>
    </rdf:RDF>
  </metadata>
  <defs
     id="defs113">
    <linearGradient
       osb:paint="solid"
       id="linearGradient831">
      <stop
         id="stop829"
         offset="0"
         style="stop-color:#ffffff;stop-opacity:1;" />
    </linearGradient>
  </defs>
  <path
     id="rect890"
     d="M 7 0 A 7 6.5 0 0 0 0.00390625 6.4003906 C 0.0026547405 6.4011255 0.0012493248 6.4016054 0 6.4023438 L 0 6.5 L 0 8.0976562 C 0.079542927 8.1446584 0.16457003 8.183645 0.25390625 8.2109375 A 7 6.5 0 0 0 0.50195312 8.9003906 C 0.20661325 9.0738135 0 9.3813843 0 9.75 C 0 10.304 0.446 10.75 1 10.75 C 1.2067675 10.75 1.3877684 10.673088 1.546875 10.566406 A 7 6.5 0 0 0 2.0664062 11.107422 C 1.7331802 11.269284 1.5 11.603333 1.5 12 C 1.5 12.554 1.946 13 2.5 13 C 3.0159125 13 3.4228945 12.608018 3.4785156 12.107422 A 7 6.5 0 0 0 3.7539062 12.240234 L 3 14 L 4 14 L 4.6035156 12.591797 A 7 6.5 0 0 0 6.0136719 12.929688 C 6.0119001 12.954123 6 12.975097 6 13 C 6 13.554 6.446 14 7 14 C 7.554 14 8 13.554 8 13 C 8 12.974431 7.988195 12.95281 7.9863281 12.927734 A 7 6.5 0 0 0 9.3984375 12.595703 L 10 14 L 11 14 L 10.248047 12.244141 A 7 6.5 0 0 0 10.521484 12.109375 C 10.577978 12.609031 10.984753 13 11.5 13 C 12.054 13 12.5 12.554 12.5 12 C 12.5 11.602351 12.266211 11.26684 11.931641 11.105469 A 7 6.5 0 0 0 12.457031 10.568359 C 12.615421 10.67356 12.7948 10.75 13 10.75 C 13.554 10.75 14 10.304 14 9.75 C 14 9.3823667 13.794032 9.0760871 13.5 8.9023438 A 7 6.5 0 0 0 13.748047 8.2265625 C 13.83421 8.2150332 13.922138 8.2071603 14 8.1757812 L 14 6.5 L 14 6.3242188 C 13.996983 6.3230028 13.993266 6.3234554 13.990234 6.3222656 A 7 6.5 0 0 0 7 0 z M 6.1074219 1.0664062 C 6.0432212 1.1985765 6 1.3426668 6 1.5 C 6 2.054 6.446 2.5 7 2.5 C 7.554 2.5 8 2.054 8 1.5 C 8 1.3436493 7.9579803 1.1999081 7.8945312 1.0683594 A 6 5.5 0 0 1 9.4082031 1.4648438 C 9.1664126 1.6470411 9 1.9225832 9 2.25 C 9 2.804 9.446 3.25 10 3.25 C 10.506191 3.25 10.904621 2.8716248 10.972656 2.3847656 A 6 5.5 0 0 1 12.087891 3.5917969 C 11.741469 3.7485978 11.5 4.0937179 11.5 4.5 C 11.5 5.054 11.946 5.5 12.5 5.5 C 12.633706 5.5 12.76058 5.4710337 12.876953 5.4238281 A 6 5.5 0 0 1 13 6.4882812 C 12.776595 6.6713837 12.625 6.9372986 12.625 7.25 C 12.625 7.4638327 12.706859 7.6502832 12.820312 7.8125 A 6 5.5 0 0 1 12.326172 9.0195312 C 12.20294 9.1331166 12.116243 9.2763244 12.0625 9.4394531 A 6 5.5 0 0 1 9.8554688 11.330078 L 8 7 A 1 1 0 0 0 7 6 A 1 1 0 0 0 6 7 L 4.1425781 11.333984 A 6 5.5 0 0 1 1.9414062 9.4550781 C 1.8876067 9.282545 1.7966126 9.1317056 1.6660156 9.0136719 A 6 5.5 0 0 1 1.2128906 7.9472656 C 1.3889162 7.7671835 1.5 7.5228823 1.5 7.25 C 1.5 6.8849168 1.2965016 6.5807996 1.0058594 6.40625 A 6 5.5 0 0 1 1.1171875 5.4238281 C 1.2349628 5.4723817 1.3642966 5.5 1.5 5.5 C 2.054 5.5 2.5 5.054 2.5 4.5 C 2.5 4.0947004 2.2591317 3.7510944 1.9140625 3.59375 A 6 5.5 0 0 1 3.0273438 2.3867188 C 3.0962029 2.872636 3.494475 3.25 4 3.25 C 4.554 3.25 5 2.804 5 2.25 C 5 1.9241508 4.8355148 1.6491447 4.5957031 1.4667969 A 6 5.5 0 0 1 6.1074219 1.0664062 z M 7.3925781 7.9179688 L 9.0039062 11.673828 A 6 5.5 0 0 1 7 12 A 6 5.5 0 0 1 4.9960938 11.675781 L 6.6054688 7.9199219 A 1 1 0 0 0 7 8 A 1 1 0 0 0 7.3925781 7.9179688 z "
     style="opacity:1;fill:#000000;fill-opacity:1;stroke:none;stroke-width:1;stroke-linecap:butt;stroke-linejoin:round;stroke-miterlimit:4;stroke-dasharray:none;stroke-opacity:1;paint-order:stroke fill markers" />
  <ellipse
     ry="5.5"
     rx="6"
     cy="6.5"
     cx="7"
     id="path826-9-8-8"
     style="opacity:0.15;fill:#000000;fill-opacity:1;stroke:none;stroke-width:0.95742708;stroke-linecap:butt;stroke-linejoin:round;stroke-miterlimit:4;stroke-dasharray:none;stroke-opacity:1;paint-order:stroke fill markers" />
</svg>
